#N canvas 375 107 514 518 10;
#X declare -path moonlib;
#X msg 209 56 0 15 24 6 100 78 54;
#X obj 218 32 declare -path moonlib;
#X obj 76 26 table \$0-sort 10;
#X msg 190 163 6;
#X obj 352 144 hradio 15 1 0 6 empty empty empty 0 -8 0 10 -262144
-1 -1 0;
#X obj 352 164 tabread \$0-sort;
#X floatatom 352 185 5 0 0 0 - - -;
#X obj 91 171 until;
#X msg 91 150 6;
#X msg 155 169 0;
#X obj 91 192 i, f 5;
#X obj 130 193 + 1;
#X obj 91 213 t f f, f 19;
#X obj 91 234 tabread \$0-sort;
#X obj 91 277 tabwrite \$0-oldsort;
#X obj 76 45 table \$0-oldsort 10;
#X obj 37 101 bng 15 250 50 0 empty empty empty 17 7 0 10 -262144 -1
-1;
#X obj 351 214 hradio 15 1 0 6 empty empty empty 0 -8 0 10 -262144
-1 -1 3;
#X floatatom 351 255 5 0 0 0 - - -;
#X obj 351 234 tabread \$0-oldsort;
#X obj 211 249 tabread \$0-oldsort;
#X obj 118 301 !=, f 16;
#X obj 91 255 t f f;
#X obj 118 322 sel 1;
#X msg 78 347 1;
#X obj 62 404 f, f 16;
#X msg 342 58 0 30 24 6 100 78 54;
#X obj 62 128 t b b b b, f 15;
#X obj 190 183 tabsort \$1 \$0-sort;
#X obj 62 83 inlet compute;
#X obj 118 441 outlet changed;
#X obj 118 343 f;
#X obj 267 306 + 1;
#X obj 209 77 s \$1;
#X connect 0 0 33 0;
#X connect 3 0 28 0;
#X connect 4 0 5 0;
#X connect 5 0 6 0;
#X connect 7 0 10 0;
#X connect 8 0 7 0;
#X connect 9 0 10 1;
#X connect 9 0 25 1;
#X connect 10 0 11 0;
#X connect 10 0 12 0;
#X connect 11 0 10 1;
#X connect 12 0 13 0;
#X connect 12 1 14 1;
#X connect 12 1 20 0;
#X connect 13 0 22 0;
#X connect 16 0 27 0;
#X connect 17 0 19 0;
#X connect 19 0 18 0;
#X connect 20 0 21 1;
#X connect 20 0 31 1;
#X connect 21 0 23 0;
#X connect 22 0 14 0;
#X connect 22 1 21 0;
#X connect 23 0 31 0;
#X connect 26 0 33 0;
#X connect 27 0 25 0;
#X connect 27 1 8 0;
#X connect 27 2 9 0;
#X connect 27 3 3 0;
#X connect 29 0 27 0;
#X connect 31 0 30 0;
