#N canvas 440 243 450 300 10;
#X obj 72 38 inlet~;
#X obj 73 205 outlet~;
#X obj 137 27 inlet;
#X obj 137 48 f \$1;
#X obj 176 26 loadbang;
#X obj 116 82 * -1;
#X obj 72 137 -~;
#X obj 88 105 clip~ 0 0, f 10;
#X obj 72 158 *~ 1;
#X obj 178 84 * -1;
#X obj 178 105 + 1;
#X obj 178 126 clip 0 1;
#X connect 0 0 7 0;
#X connect 0 0 6 0;
#X connect 2 0 3 0;
#X connect 3 0 5 0;
#X connect 3 0 7 2;
#X connect 3 0 9 0;
#X connect 4 0 3 0;
#X connect 5 0 7 1;
#X connect 6 0 8 0;
#X connect 7 0 6 1;
#X connect 8 0 1 0;
#X connect 9 0 10 0;
#X connect 10 0 11 0;
#X connect 11 0 8 1;
