#N canvas 375 107 514 464 10;
#X declare -path moonlib;
#X obj 61 30 table \$0-pos 10;
#X msg 209 56 0 15 24 6 100 78 54;
#X obj 209 77 s \$0-pos;
#X obj 218 32 declare -path moonlib;
#X obj 61 50 table \$0-sort 10;
#X obj 190 183 tabsort \$0-pos \$0-sort;
#X msg 190 163 6;
#X obj 352 144 hradio 15 1 0 6 empty empty empty 0 -8 0 10 -262144
-1 -1 3;
#X obj 352 164 tabread \$0-sort;
#X floatatom 352 185 5 0 0 0 - - -;
#X obj 91 171 until;
#X msg 91 150 6;
#X msg 155 169 0;
#X obj 91 192 i, f 5;
#X obj 130 193 + 1;
#X obj 91 213 t f f, f 19;
#X obj 91 234 tabread \$0-sort;
#X obj 91 277 tabwrite \$0-oldsort;
#X obj 61 69 table \$0-oldsort 10;
#X obj 62 106 bng 15 250 50 0 empty empty empty 17 7 0 10 -262144 -1
-1;
#X obj 351 214 hradio 15 1 0 6 empty empty empty 0 -8 0 10 -262144
-1 -1 3;
#X floatatom 351 255 5 0 0 0 - - -;
#X obj 351 234 tabread \$0-oldsort;
#X obj 211 249 tabread \$0-oldsort;
#X obj 118 301 !=, f 16;
#X obj 91 255 t f f;
#X obj 118 322 sel 1;
#X msg 118 343 1;
#X obj 62 370 f, f 16;
#X obj 62 396 tgl 15 0 empty empty empty 17 7 0 10 -262144 -1 -1 0
1;
#X msg 342 58 0 30 24 6 100 78 54;
#X obj 62 128 t b b b b, f 15;
#X connect 1 0 2 0;
#X connect 6 0 5 0;
#X connect 7 0 8 0;
#X connect 8 0 9 0;
#X connect 10 0 13 0;
#X connect 11 0 10 0;
#X connect 12 0 13 1;
#X connect 12 0 28 1;
#X connect 13 0 14 0;
#X connect 13 0 15 0;
#X connect 14 0 13 1;
#X connect 15 0 16 0;
#X connect 15 1 17 1;
#X connect 15 1 23 0;
#X connect 16 0 25 0;
#X connect 19 0 31 0;
#X connect 20 0 22 0;
#X connect 22 0 21 0;
#X connect 23 0 24 1;
#X connect 24 0 26 0;
#X connect 25 0 17 0;
#X connect 25 1 24 0;
#X connect 26 0 27 0;
#X connect 27 0 28 1;
#X connect 28 0 29 0;
#X connect 30 0 2 0;
#X connect 31 0 28 0;
#X connect 31 1 11 0;
#X connect 31 2 12 0;
#X connect 31 3 6 0;
