#N canvas 633 127 450 452 10;
#X obj 101 115 cnv 5 100 5 empty \$0-canvas empty 20 12 0 14 -241291
-241291 0;
#X obj 105 155 inlet;
#X obj 107 370 outlet;
#X obj 107 231 r STATE;
#X obj 107 252 sel \$1;
#X msg 107 323 1;
#X obj 107 344 change;
#X msg 140 323 0;
#X obj 105 176 symbol \$1;
#X obj 105 197 s STATE;
#X obj 220 325 sel 0 1;
#X obj 220 388 s \$0-canvas;
#X msg 220 367 color \$1 \$1 \$1;
#X msg 220 346 10;
#X msg 248 347 15;
#X obj 292 298 loadbang;
#X obj 107 299 del 10;
#X msg 117 275 stop;
#X connect 1 0 8 0;
#X connect 3 0 4 0;
#X connect 4 0 16 0;
#X connect 4 1 7 0;
#X connect 4 1 17 0;
#X connect 5 0 6 0;
#X connect 6 0 2 0;
#X connect 6 0 10 0;
#X connect 7 0 6 0;
#X connect 8 0 9 0;
#X connect 10 0 13 0;
#X connect 10 1 14 0;
#X connect 12 0 11 0;
#X connect 13 0 12 0;
#X connect 14 0 12 0;
#X connect 15 0 13 0;
#X connect 16 0 5 0;
#X connect 17 0 16 0;
#X coords 0 -1 1 1 102 23 1 100 100;
