#N canvas 208 115 807 716 10;
#X obj 200 655 outlet~;
#X obj 80 604 *~, f 9;
#X obj 320 656 outlet~;
#X obj 211 607 *~, f 9;
#X obj 79 577 tabplay~;
#X obj 210 579 tabplay~;
#X obj 358 606 *~, f 9;
#X obj 513 607 *~, f 9;
#X obj 357 579 tabplay~;
#X obj 512 579 tabplay~;
#X obj 28 122 switch~;
#X obj 453 438 *~ -1;
#X obj 453 459 +~ 1;
#X obj 494 408 line~;
#X obj 173 122 s \$0-bank;
#X obj 28 100 route switch bank faderange, f 73;
#X obj 318 124 s \$0-faderange;
#X text 332 140 random+min;
#N canvas 863 237 646 550 get_next_note_fade 0;
#X obj 149 195 tabread;
#X obj 149 153 r \$0-bank;
#X msg 149 175 set notelength-\$1 \, 0;
#X obj 143 283 tabread;
#X obj 158 238 r \$0-bank;
#X msg 158 260 set notelength-\$1;
#X obj 73 95 bng 15 250 50 0 empty empty empty 17 7 0 10 -262144 -1
-1;
#X obj 116 219 random;
#X obj 116 240 + 1;
#X obj 116 261 t f f;
#X obj 143 304 / 44.1;
#X floatatom 329 207 7 0 0 0 - - -;
#X obj 143 325 -, f 8;
#X obj 188 304 r \$0-nextfade;
#X obj 362 112 r \$0-faderange;
#X obj 362 133 unpack f f;
#X obj 299 155 random 7000;
#X obj 299 176 + 500, f 20;
#X obj 331 111 bng 15 250 50 0 empty empty empty 17 7 0 10 -262144
-1 -1;
#X obj 116 126 t b b, f 31;
#X obj 143 346 t f f, f 9;
#X obj 194 367 min, f 17;
#X msg 426 75 60000 100;
#X msg 400 47 6000 100;
#X obj 143 387 -, f 4;
#X obj 143 408 t b f, f 6;
#X obj 143 429 random;
#X obj 143 450 * 44.1;
#X obj 116 481 pack f f f, f 13;
#X text 203 481 next_note start_sample fadetime;
#X obj 116 502 outlet;
#X obj 116 87 inlet;
#X floatatom 39 295 5 0 0 0 - - -;
#X floatatom 249 442 7 0 0 0 - - -;
#X floatatom 251 465 7 0 0 0 - - -;
#X connect 0 0 7 1;
#X connect 1 0 2 0;
#X connect 2 0 0 0;
#X connect 3 0 10 0;
#X connect 4 0 5 0;
#X connect 5 0 3 0;
#X connect 6 0 19 0;
#X connect 7 0 8 0;
#X connect 8 0 9 0;
#X connect 9 0 28 0;
#X connect 9 1 3 0;
#X connect 10 0 12 0;
#X connect 12 0 20 0;
#X connect 13 0 12 1;
#X connect 14 0 15 0;
#X connect 15 0 16 1;
#X connect 15 1 17 1;
#X connect 16 0 17 0;
#X connect 17 0 21 1;
#X connect 18 0 16 0;
#X connect 19 0 7 0;
#X connect 19 1 16 0;
#X connect 20 0 24 0;
#X connect 20 1 21 0;
#X connect 21 0 24 1;
#X connect 21 0 28 2;
#X connect 22 0 15 0;
#X connect 23 0 15 0;
#X connect 24 0 25 0;
#X connect 25 0 26 0;
#X connect 25 1 26 1;
#X connect 26 0 27 0;
#X connect 27 0 28 1;
#X connect 28 0 30 0;
#X connect 31 0 19 0;
#X restore 125 262 pd get_next_note_fade;
#X text 140 279 next_note start_sample fadetime;
#X obj 362 334 r \$0-nextfade;
#X msg 125 334 \$3;
#X obj 125 356 s \$0-nextfade;
#X obj 296 327 f;
#X obj 125 301 t a a b, f 29;
#X obj 328 327 == 0;
#X obj 317 355 pack f f;
#X obj 210 427 list prepend;
#X obj 277 383 r \$0-bank;
#X obj 210 405 list prepend;
#X obj 210 357 list split 2;
#X msg 79 552 set NT-\$1-\$2-L \, \$3;
#X msg 210 553 set NT-\$1-\$2-R \, \$3;
#X msg 357 555 set NT-\$1-\$2-L \, \$3;
#X msg 512 555 set NT-\$1-\$2-R \, \$3;
#X obj 210 451 route 1 0;
#X msg 344 387 \$2;
#X obj 232 151 del;
#X obj 207 176 bng 15 250 50 0 empty empty empty 17 7 0 10 -262144
-1 -1;
#X obj 172 9 loadbang;
#X obj 28 79 r \$1;
#X obj 514 507 cos~;
#X obj 452 507 cos~;
#X obj 514 486 *~ 0.25;
#X obj 452 486 *~ 0.25;
#X obj 125 212 b;
#X obj 344 207 bng 15 250 50 0 empty empty empty 17 7 0 10 -262144
-1 -1;
#X obj 296 206 spigot;
#X obj 333 185 tgl 15 0 empty empty empty 17 7 0 10 -262144 -1 -1 0
1;
#X obj 52 182 sel 1;
#X obj 125 236 spigot;
#X obj 52 158 t f f;
#X obj 515 201 route 1 2;
#X obj 515 251 / 44.1;
#X obj 515 228 unpack f;
#X obj 515 272 t b f;
#X msg 515 293 0 \, 1e+06 1e+06;
#X obj 515 314 line;
#X obj 515 335 +;
#X obj 515 356 / 22000;
#X obj 516 377 hsl 128 15 0 1 0 0 empty empty empty -2 -8 0 10 -262144
-1 -1 0 1;
#X obj 658 252 / 44.1;
#X obj 658 229 unpack f;
#X obj 658 273 t b f;
#X msg 658 294 0 \, 1e+06 1e+06;
#X obj 658 315 line;
#X obj 658 336 +;
#X obj 658 357 / 22000;
#X obj 517 394 hsl 128 15 0 1 0 0 empty empty empty -2 -8 0 10 -262144
-1 -1 0 1;
#X obj 389 225 spigot;
#X obj 457 262 sel 0;
#X msg 457 283 stop;
#X floatatom 744 343 5 0 0 0 - - -;
#X msg 744 322 30000;
#X floatatom 76 387 7 0 0 0 - - -;
#X obj 70 78 inlet;
#X obj 172 30 f \$2;
#X obj 172 51 sel 0;
#X msg 172 72 1;
#X obj 343 16 loadbang;
#X obj 343 37 list \$3 \$4;
#X obj 343 58 route 0;
#X connect 1 0 0 0;
#X connect 3 0 2 0;
#X connect 4 0 1 0;
#X connect 5 0 3 0;
#X connect 6 0 0 0;
#X connect 7 0 2 0;
#X connect 8 0 6 0;
#X connect 9 0 7 0;
#X connect 11 0 12 0;
#X connect 12 0 44 0;
#X connect 13 0 11 0;
#X connect 13 0 43 0;
#X connect 15 0 10 0;
#X connect 15 0 51 0;
#X connect 15 1 14 0;
#X connect 15 2 16 0;
#X connect 18 0 24 0;
#X connect 20 0 26 1;
#X connect 21 0 22 0;
#X connect 23 0 25 0;
#X connect 23 0 26 0;
#X connect 23 0 27 1;
#X connect 24 0 21 0;
#X connect 24 1 30 0;
#X connect 24 1 69 0;
#X connect 24 2 23 0;
#X connect 25 0 23 1;
#X connect 26 0 13 0;
#X connect 26 0 36 0;
#X connect 27 0 35 0;
#X connect 28 0 29 1;
#X connect 29 0 27 0;
#X connect 30 0 29 0;
#X connect 31 0 4 0;
#X connect 32 0 5 0;
#X connect 33 0 8 0;
#X connect 34 0 9 0;
#X connect 35 0 32 0;
#X connect 35 0 31 0;
#X connect 35 1 33 0;
#X connect 35 1 34 0;
#X connect 36 0 37 0;
#X connect 37 0 45 0;
#X connect 38 0 45 0;
#X connect 39 0 76 0;
#X connect 40 0 15 0;
#X connect 41 0 7 1;
#X connect 41 0 6 1;
#X connect 42 0 3 1;
#X connect 42 0 1 1;
#X connect 43 0 41 0;
#X connect 44 0 42 0;
#X connect 45 0 47 0;
#X connect 45 0 50 0;
#X connect 47 0 46 0;
#X connect 48 0 47 1;
#X connect 48 0 69 1;
#X connect 48 0 70 0;
#X connect 49 0 45 0;
#X connect 50 0 18 0;
#X connect 51 0 49 0;
#X connect 51 1 50 1;
#X connect 52 0 54 0;
#X connect 52 1 62 0;
#X connect 53 0 55 0;
#X connect 54 0 53 0;
#X connect 55 0 56 0;
#X connect 55 1 58 1;
#X connect 56 0 57 0;
#X connect 57 0 58 0;
#X connect 58 0 59 0;
#X connect 59 0 60 0;
#X connect 61 0 63 0;
#X connect 62 0 61 0;
#X connect 63 0 64 0;
#X connect 63 1 66 1;
#X connect 64 0 65 0;
#X connect 65 0 66 0;
#X connect 66 0 67 0;
#X connect 67 0 68 0;
#X connect 69 0 52 0;
#X connect 70 0 71 0;
#X connect 71 0 57 0;
#X connect 71 0 65 0;
#X connect 72 0 67 1;
#X connect 72 0 59 1;
#X connect 73 0 72 0;
#X connect 75 0 15 0;
#X connect 76 0 77 0;
#X connect 77 0 78 0;
#X connect 77 1 14 0;
#X connect 78 0 14 0;
#X connect 79 0 80 0;
#X connect 80 0 81 0;
#X connect 81 1 16 0;
