#N canvas 622 94 501 411 10;
#X obj 27 24 r \$2;
#X obj 28 348 outlet~;
#X obj 27 319 *~;
#X obj 213 276 line~;
#X msg 277 248 0 50;
#X obj 172 97 b;
#X obj 172 71 route \$1 -1;
#X obj 27 290 tabplay~;
#X obj 27 66 route \$1;
#X obj 27 45 route play stop, f 49;
#X text 49 86 bank note;
#X obj 27 124 t b a b;
#X obj 27 193 del 50;
#X msg 137 128 stop;
#X obj 27 216 list;
#X obj 98 290 tabplay~;
#X obj 98 347 outlet~;
#X obj 97 318 *~;
#X msg 27 242 set NT-\$1-\$2-L \, 0;
#X msg 98 268 set NT-\$1-\$2-R \, 0;
#X msg 213 248 0 \, 1 10;
#X connect 0 0 9 0;
#X connect 2 0 1 0;
#X connect 3 0 2 1;
#X connect 3 0 17 1;
#X connect 4 0 3 0;
#X connect 5 0 4 0;
#X connect 5 0 13 0;
#X connect 6 0 5 0;
#X connect 6 1 5 0;
#X connect 7 0 2 0;
#X connect 8 0 11 0;
#X connect 9 0 8 0;
#X connect 9 1 6 0;
#X connect 11 0 12 0;
#X connect 11 1 14 1;
#X connect 11 2 4 0;
#X connect 12 0 14 0;
#X connect 12 0 20 0;
#X connect 13 0 12 0;
#X connect 14 0 18 0;
#X connect 14 0 19 0;
#X connect 15 0 17 0;
#X connect 17 0 16 0;
#X connect 18 0 7 0;
#X connect 19 0 15 0;
#X connect 20 0 3 0;
